<?xml version="1.0" standalone="no"?>
<!DOCTYPE svg PUBLIC "-//W3C//DTD SVG 20010904//EN"
 "http://www.w3.org/TR/2001/REC-SVG-20010904/DTD/svg10.dtd">
<svg version="1.0" xmlns="http://www.w3.org/2000/svg"
 width="467.000000pt" height="271.000000pt" viewBox="0 0 467.000000 271.000000"
 preserveAspectRatio="xMidYMid meet">

<g transform="translate(0.000000,271.000000) scale(0.100000,-0.100000)"
fill="#000000" stroke="none">
<path d="M0 1355 l0 -1355 2335 0 2335 0 0 1355 0 1355 -2335 0 -2335 0 0
-1355z m4524 1234 l26 -31 0 -1190 0 -1190 -29 -29 -29 -29 -356 0 -356 0 0
690 c0 677 0 690 -20 710 -18 18 -33 20 -133 20 -169 0 -156 29 -159 -367 l-3
-321 -144 326 c-79 180 -152 335 -163 345 -17 14 -40 17 -129 17 -96 0 -111
-2 -129 -20 -20 -20 -20 -34 -21 -672 0 -405 -4 -645 -10 -633 -5 11 -83 304
-175 650 -142 540 -169 633 -190 653 -23 20 -35 22 -133 22 -89 0 -113 -3
-130 -17 -17 -14 -40 -87 -106 -333 l-84 -315 0 846 -1 846 26 27 27 26 1197
0 1198 0 26 -31z m-3614 -1199 l0 -80 -280 0 -280 0 0 -205 0 -205 245 0 246
0 -3 -77 -3 -78 -242 -3 -243 -2 0 -310 0 -310 -85 0 -85 0 0 675 0 675 365 0
365 0 0 -80z m755 40 c80 -41 116 -81 147 -165 18 -51 21 -82 22 -205 0 -201
-23 -288 -96 -356 -36 -35 -77 -57 -121 -68 -19 -4 -27 -12 -24 -20 3 -8 67
-121 141 -251 75 -130 136 -239 136 -241 0 -3 -44 -3 -97 -2 l-98 3 -134 247
-134 248 -74 0 -73 0 0 -250 0 -250 -85 0 -85 0 0 676 0 676 253 -4 253 -3 69
-35z m795 35 c0 -2 79 -301 175 -664 96 -362 175 -664 175 -670 0 -7 -29 -11
-84 -11 l-84 0 -31 114 c-17 62 -31 118 -31 125 0 8 -58 11 -205 11 l-204 0
-11 -37 c-5 -21 -20 -76 -33 -123 l-23 -85 -88 -3 c-80 -3 -87 -1 -82 15 11
38 295 1113 321 1213 14 57 29 108 31 112 5 8 174 11 174 3z m874 -502 c123
-277 224 -505 227 -507 2 -2 -1 93 -8 212 -6 119 -12 349 -12 510 l-1 292 85
0 85 0 0 -675 0 -675 -79 0 -78 0 -203 443 c-111 243 -211 458 -220 477 -18
34 -18 20 -13 -442 l6 -478 -86 0 -87 0 0 675 0 676 81 -3 81 -3 222 -502z
m-29 -483 c59 -129 121 -263 136 -297 l28 -63 -139 0 -140 0 0 302 c0 166 2
299 4 297 2 -2 52 -110 111 -239z m-771 -245 c9 -30 19 -68 22 -85 l7 -30
-193 0 c-168 0 -191 2 -186 15 3 9 13 44 22 78 9 34 18 65 20 69 3 5 70 8 149
8 l144 0 15 -55z"/>
<path d="M1260 1044 l0 -265 143 3 c166 4 200 15 237 80 19 33 24 60 28 152 8
186 -18 255 -107 285 -19 6 -94 11 -167 11 l-134 0 0 -266z"/>
<path d="M2370 1230 c-2 -7 -4 -15 -55 -255 -25 -121 -59 -271 -75 -332 l-28
-113 160 0 c147 0 159 1 154 18 -20 66 -56 222 -101 437 -30 138 -54 248 -55
245z m7 -628 c-33 -2 -61 -1 -63 1 -4 4 41 216 53 247 3 8 20 -43 37 -115 l31
-130 -58 -3z"/>
</g>
</svg>
